<svg width="207" height="76" viewBox="0 0 207 76" fill="none" xmlns="http://www.w3.org/2000/svg">
<path d="M12.4 60C8.66666 60 5.65333 58.88 3.36 56.64C1.12 54.3467 -4.52995e-06 51.3333 -4.52995e-06 47.6V-4.76837e-06H12.96V45.36C12.96 46.3733 13.28 47.2 13.92 47.84C14.56 48.48 15.36 48.8 16.32 48.8H18.8V60H12.4ZM46.81 61.2C42.17 61.2 38.1433 60.24 34.73 58.32C31.3167 56.3467 28.65 53.5733 26.73 50C24.8633 46.3733 23.93 42.1067 23.93 37.2C23.93 32.2933 24.8633 28.0533 26.73 24.48C28.5967 20.9067 31.21 18.1333 34.57 16.16C37.9833 14.1867 41.9833 13.2 46.57 13.2C51.3167 13.2 55.3433 14.2667 58.65 16.4C62.01 18.5333 64.5167 21.6267 66.17 25.68C67.8767 29.7333 68.5967 34.6133 68.33 40.32H36.97C37.3967 43.7333 38.5167 46.4 40.33 48.32C42.1433 50.24 44.49 51.2 47.37 51.2C49.7167 51.2 51.6367 50.64 53.13 49.52C54.6233 48.3467 55.5567 46.9333 55.93 45.28H68.01C67.4767 48.5867 66.2233 51.44 64.25 53.84C62.33 56.1867 59.8767 58 56.89 59.28C53.9033 60.56 50.5433 61.2 46.81 61.2ZM46.65 23.12C44.0367 23.12 41.8767 23.9733 40.17 25.68C38.4633 27.3333 37.3967 29.5733 36.97 32.4H55.53C55.3167 29.04 54.33 26.6667 52.57 25.28C50.81 23.84 48.8367 23.12 46.65 23.12ZM91.7887 56.24C88.3221 56.24 85.1754 55.36 82.3487 53.6C79.5754 51.84 77.3621 49.36 75.7087 46.16C74.0554 42.9067 73.2287 39.0933 73.2287 34.72C73.2287 30.4533 74.0821 26.72 75.7887 23.52C77.4954 20.2667 79.8154 17.7333 82.7487 15.92C85.6821 14.1067 88.9621 13.2 92.5887 13.2C95.2554 13.2 97.6021 13.7333 99.6287 14.8C101.709 15.8667 103.469 17.3333 104.909 19.2L105.469 14.4H116.909V55.84C116.909 59.68 115.975 63.0933 114.109 66.08C112.242 69.0667 109.629 71.3867 106.269 73.04C102.962 74.7467 99.0421 75.6 94.5087 75.6C91.0421 75.6 87.8154 74.9067 84.8287 73.52C81.8421 72.1333 79.4154 70.1867 77.5487 67.68C75.7354 65.1733 74.7754 62.2667 74.6687 58.96H85.9487C86.5887 61.1467 87.6021 62.72 88.9887 63.68C90.3754 64.6933 92.2154 65.2 94.5087 65.2C97.3354 65.2 99.6287 64.3733 101.389 62.72C103.149 61.12 104.029 58.8267 104.029 55.84V50.24C102.855 52 101.282 53.44 99.3087 54.56C97.3354 55.68 94.8287 56.24 91.7887 56.24ZM94.9887 46.08C97.8154 46.08 100.029 45.12 101.629 43.2C103.229 41.2267 104.029 38.64 104.029 35.44C104.029 32.2933 103.229 29.6533 101.629 27.52C100.029 25.3867 97.8154 24.32 94.9887 24.32C92.2154 24.32 90.0821 25.36 88.5887 27.44C87.1487 29.52 86.4287 32.1867 86.4287 35.44C86.4287 38.64 87.1487 41.2267 88.5887 43.2C90.0287 45.12 92.1621 46.08 94.9887 46.08ZM145.216 61.2C141.002 61.2 137.269 60.1867 134.016 58.16C130.816 56.08 128.282 53.2267 126.416 49.6C124.602 45.92 123.696 41.7067 123.696 36.96C123.696 32.32 124.549 28.2133 126.256 24.64C127.962 21.0667 130.336 18.2667 133.376 16.24C136.416 14.2133 139.882 13.2 143.776 13.2C146.496 13.2 148.976 13.68 151.216 14.64C153.509 15.6 155.402 17.04 156.896 18.96V-4.76837e-06H169.856V60H158.896L157.936 53.76C155.162 58.72 150.922 61.2 145.216 61.2ZM147.136 49.84C150.122 49.84 152.496 48.6667 154.256 46.32C156.016 43.9733 156.896 40.8 156.896 36.8C156.896 32.8 156.016 29.6533 154.256 27.36C152.496 25.0133 150.122 23.84 147.136 23.84C143.989 23.84 141.482 25.0133 139.616 27.36C137.802 29.6533 136.896 32.8 136.896 36.8C136.896 40.8 137.802 43.9733 139.616 46.32C141.482 48.6667 143.989 49.84 147.136 49.84ZM178.125 60V33.6C178.125 27.04 179.885 22 183.405 18.48C186.978 14.96 192.072 13.2 198.685 13.2C199.378 13.2 200.472 13.2533 201.965 13.36C203.458 13.4133 204.952 13.6 206.445 13.92V25.04C205.432 24.88 204.472 24.7467 203.565 24.64C202.658 24.48 201.645 24.4 200.525 24.4C198.872 24.4 197.325 24.64 195.885 25.12C194.445 25.6 193.272 26.5067 192.365 27.84C191.512 29.1733 191.085 31.12 191.085 33.68V60H178.125Z" fill="white"/>
</svg>
