<svg width="320" height="320" viewBox="0 0 320 320" fill="none" xmlns="http://www.w3.org/2000/svg">
<path d="M70.3347 190C66.6014 190 63.588 188.88 61.2947 186.64C59.0547 184.347 57.9347 181.333 57.9347 177.6V130H70.8947V175.36C70.8947 176.373 71.2147 177.2 71.8547 177.84C72.4947 178.48 73.2947 178.8 74.2547 178.8H76.7347V190H70.3347ZM104.745 191.2C100.105 191.2 96.078 190.24 92.6647 188.32C89.2514 186.347 86.5847 183.573 84.6647 180C82.798 176.373 81.8647 172.107 81.8647 167.2C81.8647 162.293 82.798 158.053 84.6647 154.48C86.5314 150.907 89.1447 148.133 92.5047 146.16C95.918 144.187 99.918 143.2 104.505 143.2C109.251 143.2 113.278 144.267 116.585 146.4C119.945 148.533 122.451 151.627 124.105 155.68C125.811 159.733 126.531 164.613 126.265 170.32H94.9047C95.3314 173.733 96.4514 176.4 98.2647 178.32C100.078 180.24 102.425 181.2 105.305 181.2C107.651 181.2 109.571 180.64 111.065 179.52C112.558 178.347 113.491 176.933 113.865 175.28H125.945C125.411 178.587 124.158 181.44 122.185 183.84C120.265 186.187 117.811 188 114.825 189.28C111.838 190.56 108.478 191.2 104.745 191.2ZM104.585 153.12C101.971 153.12 99.8114 153.973 98.1047 155.68C96.398 157.333 95.3314 159.573 94.9047 162.4H113.465C113.251 159.04 112.265 156.667 110.505 155.28C108.745 153.84 106.771 153.12 104.585 153.12ZM152.603 191.2C148.39 191.2 144.657 190.187 141.403 188.16C138.203 186.08 135.67 183.227 133.803 179.6C131.99 175.92 131.083 171.707 131.083 166.96C131.083 162.32 131.937 158.213 133.643 154.64C135.35 151.067 137.723 148.267 140.763 146.24C143.803 144.213 147.27 143.2 151.163 143.2C153.883 143.2 156.363 143.68 158.603 144.64C160.897 145.6 162.79 147.04 164.283 148.96V130H177.243V190H166.283L165.323 183.76C162.55 188.72 158.31 191.2 152.603 191.2ZM154.523 179.84C157.51 179.84 159.883 178.667 161.643 176.32C163.403 173.973 164.283 170.8 164.283 166.8C164.283 162.8 163.403 159.653 161.643 157.36C159.883 155.013 157.51 153.84 154.523 153.84C151.377 153.84 148.87 155.013 147.003 157.36C145.19 159.653 144.283 162.8 144.283 166.8C144.283 170.8 145.19 173.973 147.003 176.32C148.87 178.667 151.377 179.84 154.523 179.84ZM202.848 186.24C199.382 186.24 196.235 185.36 193.408 183.6C190.635 181.84 188.422 179.36 186.768 176.16C185.115 172.907 184.288 169.093 184.288 164.72C184.288 160.453 185.142 156.72 186.848 153.52C188.555 150.267 190.875 147.733 193.808 145.92C196.742 144.107 200.022 143.2 203.648 143.2C206.315 143.2 208.662 143.733 210.688 144.8C212.768 145.867 214.528 147.333 215.968 149.2L216.528 144.4H227.968V185.84C227.968 189.68 227.035 193.093 225.168 196.08C223.302 199.067 220.688 201.387 217.328 203.04C214.022 204.747 210.102 205.6 205.568 205.6C202.102 205.6 198.875 204.907 195.888 203.52C192.902 202.133 190.475 200.187 188.608 197.68C186.795 195.173 185.835 192.267 185.728 188.96H197.008C197.648 191.147 198.662 192.72 200.048 193.68C201.435 194.693 203.275 195.2 205.568 195.2C208.395 195.2 210.688 194.373 212.448 192.72C214.208 191.12 215.088 188.827 215.088 185.84V180.24C213.915 182 212.342 183.44 210.368 184.56C208.395 185.68 205.888 186.24 202.848 186.24ZM206.048 176.08C208.875 176.08 211.088 175.12 212.688 173.2C214.288 171.227 215.088 168.64 215.088 165.44C215.088 162.293 214.288 159.653 212.688 157.52C211.088 155.387 208.875 154.32 206.048 154.32C203.275 154.32 201.142 155.36 199.648 157.44C198.208 159.52 197.488 162.187 197.488 165.44C197.488 168.64 198.208 171.227 199.648 173.2C201.088 175.12 203.222 176.08 206.048 176.08ZM236.138 190V163.6C236.138 157.04 237.898 152 241.418 148.48C244.991 144.96 250.084 143.2 256.698 143.2C257.391 143.2 258.484 143.253 259.978 143.36C261.471 143.413 262.964 143.6 264.458 143.92V155.04C263.444 154.88 262.484 154.747 261.578 154.64C260.671 154.48 259.658 154.4 258.538 154.4C256.884 154.4 255.338 154.64 253.898 155.12C252.458 155.6 251.284 156.507 250.378 157.84C249.524 159.173 249.098 161.12 249.098 163.68V190H236.138Z" fill="white"/>
<path d="M40.5 265L92.0704 247.81C94.5865 246.971 96.6663 245.167 97.8524 242.795L112.717 213.066C112.901 212.698 113.195 212.395 113.557 212.2L139 198.5M271.5 36L230.349 90.8685C228.839 92.8818 226.625 94.2517 224.15 94.705L197.799 99.5298C194.536 100.127 191.867 102.471 190.852 105.629L183.982 127" stroke="white" stroke-width="6" stroke-linecap="round"/>
</svg>
