<svg width="514" height="514" viewBox="0 0 514 514" fill="none" xmlns="http://www.w3.org/2000/svg">
<rect width="514" height="514" fill="#A40000"/>
<path d="M375.499 282.496V294.996C375.499 298.371 372.874 301.121 369.374 301.246H351.124C344.499 301.246 338.499 296.371 337.999 289.871C337.624 285.996 339.124 282.371 341.624 279.871C343.874 277.496 346.999 276.246 350.374 276.246H369.249C372.874 276.371 375.499 279.121 375.499 282.496Z" fill="white"/>
<path d="M332.251 270.62C326.001 276.745 323.001 285.87 325.501 295.37C328.751 306.995 340.126 314.37 352.126 314.37H363.001C369.876 314.37 375.501 319.995 375.501 326.87V329.245C375.501 355.12 354.376 376.245 328.501 376.245H185C159.125 376.245 138 355.12 138 329.245V245.12C138 229.746 145.375 216.121 156.75 207.621C164.625 201.621 174.375 198.121 185 198.121H328.501C354.376 198.121 375.501 219.246 375.501 245.12V250.62C375.501 257.495 369.876 263.12 363.001 263.12H350.251C343.251 263.12 336.876 265.87 332.251 270.62Z" fill="white"/>
<path d="M309.877 172.25C313.252 175.625 310.377 180.875 305.627 180.875L209.626 180.75C204.126 180.75 201.251 174 205.251 170.125L225.501 149.75C242.627 132.75 270.377 132.75 287.502 149.75L309.377 171.875C309.502 172 309.752 172.125 309.877 172.25Z" fill="white"/>
</svg>
